<?xml version="1.0" encoding="iso-8859-1"?>
<!-- Uploaded to: SVG Repo, www.svgrepo.com, Generator: SVG Repo Mixer Tools -->
<svg fill="#000000" version="1.1" id="Layer_1" xmlns="http://www.w3.org/2000/svg" xmlns:xlink="http://www.w3.org/1999/xlink" 
	 viewBox="0 0 512 512" xml:space="preserve">
<g>
	<g>
		<path d="M251.574,0c-37.454,0-67.925,30.471-67.925,67.926c-0.001,37.454,30.47,67.925,67.925,67.925
			c37.454,0,67.926-30.471,67.926-67.925C319.5,30.471,289.028,0,251.574,0z M251.574,105.434
			c-20.682,0-37.508-16.826-37.508-37.508c-0.001-20.683,16.825-37.509,37.508-37.509c20.682,0,37.509,16.826,37.509,37.509
			C289.082,88.608,272.256,105.434,251.574,105.434z"/>
	</g>
</g>
<g>
	<g>
		<rect x="190.525" y="204.932" width="122.106" height="30.417"/>
	</g>
</g>
<g>
	<g>
		<path d="M304.62,153.082H198.529c-2.383,0-4.774,0.056-7.168,0.166c-11.603-23.7-35.991-39.386-63.066-39.386h-15.209v64.928
			c-24.427,16.201-43.836,39.075-55.821,65.747H13.751v126.705h43.494c9.037,20.098,22.384,38.212,39.019,52.855
			c16.391,14.427,35.715,25.243,56.453,31.674V512h86.192v-49.304h25.329V512h86.192v-56.214
			c29.054-9.021,55.177-26.645,74.494-50.468c19.047-23.49,30.761-52.231,33.74-82.22h39.585V292.68H458.68
			C451.014,214.431,384.85,153.082,304.62,153.082z M401.298,386.159c-17.623,21.734-42.268,37.044-69.396,43.113l-11.889,2.659
			v49.651h-25.357v-49.304h-86.164v49.304h-25.357v-49.668l-11.889-2.659c-20.247-4.53-39.226-14.209-54.884-27.991
			c-15.552-13.689-27.528-31.143-34.63-50.476l-3.659-9.966H44.169v-65.87h33.92l3.661-9.962
			c9.959-27.094,29.21-50.045,54.207-64.627l7.544-4.401v-48.647c11.055,4.599,19.786,14.077,23.114,26.093l3.501,12.64
			l13.018-1.605c5.099-0.629,10.279-0.948,15.394-0.948h106.09c68.588,0,124.391,55.801,124.391,124.39
			C429.01,336.737,419.426,363.802,401.298,386.159z"/>
	</g>
</g>
<g>
	<g>
		<circle cx="129.315" cy="260.028" r="16.68"/>
	</g>
</g>
</svg>